<svg xmlns="http://www.w3.org/2000/svg" width="30" height="33.071" viewBox="0 0 30 33.071"><g transform="translate(-4790 -2767.929)"><path d="M49.014,28.93V21.592a1.555,1.555,0,1,0-3.093,0V28.93a1.555,1.555,0,1,0,3.093,0Z" transform="translate(4769.985 2759.682)" fill="none" stroke="#fff" stroke-width="2" fill-rule="evenodd"/><path d="M31.561,33.071V20.826H15.107V33.071a1.817,1.817,0,0,0,1.863,1.764h1.342a1.537,1.537,0,0,0-.071.464v3.522a1.766,1.766,0,0,0,3.528,0V35.3a1.537,1.537,0,0,0-.071-.464h3.275a1.519,1.519,0,0,0-.071.464v3.522a1.767,1.767,0,0,0,3.528,0V35.3a1.52,1.52,0,0,0-.074-.464H29.7a1.813,1.813,0,0,0,1.859-1.764Z" transform="translate(4781.665 2759.507)" fill="none" stroke="#fff" stroke-width="2" fill-rule="evenodd"/><path d="M15.108,12.2H31.561a6.519,6.519,0,0,0-4.177-5.726l.327-.483.329-.474.733-1.072a.282.282,0,0,0-.083-.4.3.3,0,0,0-.407.08L27.165,5.758l-.335.489a10.088,10.088,0,0,0-6.991,0l-.333-.489-.329-.48-.788-1.148a.3.3,0,0,0-.407-.08.282.282,0,0,0-.083.4l.733,1.072.326.474.333.483A6.516,6.516,0,0,0,15.108,12.2Z" transform="translate(4781.664 2765)" fill="none" stroke="#fff" stroke-width="2" fill-rule="evenodd"/><path d="M10.091,28.93V21.592a1.638,1.638,0,0,0-1.544-1.718A1.638,1.638,0,0,0,7,21.592V28.93a1.635,1.635,0,0,0,1.547,1.714,1.635,1.635,0,0,0,1.544-1.714Z" transform="translate(4784 2759.682)" fill="none" stroke="#fff" stroke-width="2" fill-rule="evenodd"/><path d="M34.462,11.134a.858.858,0,1,1-.88.856.868.868,0,0,1,.88-.856Z" transform="translate(4774.063 2762.065)" fill="#fff" fill-rule="evenodd"/><path d="M22.479,11.134a.858.858,0,1,1-.88.856.868.868,0,0,1,.88-.856Z" transform="translate(4778.993 2762.065)" fill="#fff" fill-rule="evenodd"/></g></svg>