<svg xmlns="http://www.w3.org/2000/svg" width="28.378" height="32.523" viewBox="0 0 28.378 32.523"><g transform="translate(-4853.695 -2769.477)"><path d="M33.068,34.916a22.131,22.131,0,0,0,1.968-3.694,6.716,6.716,0,0,1-.883-12.133A7.708,7.708,0,0,0,28.333,16c-2.732,0-3.89,1.307-5.788,1.307-1.955,0-3.444-1.3-5.8-1.3a7.907,7.907,0,0,0-6.363,3.843c-2.2,3.418-1.825,9.838,1.745,15.309,1.279,1.958,2.983,4.157,5.214,4.176,1.987.022,2.549-1.273,5.237-1.286s3.2,1.3,5.185,1.283c2.231-.019,4.034-2.456,5.309-4.415Z" transform="translate(4845.69 2761.666)" fill="none" stroke="#fff" stroke-width="2" fill-rule="evenodd"/><path d="M33.453,9.715a6.7,6.7,0,0,0,1.472-4.944,7.139,7.139,0,0,0-4.627,2.5A6.2,6.2,0,0,0,28.781,12.1a6.027,6.027,0,0,0,4.672-2.383Z" transform="translate(4838.5 2765.766)" fill="none" stroke="#fff" stroke-width="2" fill-rule="evenodd"/></g></svg>